# Made in Blockbench 4.12.6
mtllib sceptic_tank.mtl

o tank_tube
v 0 0.125 0
v 0 1 0
v 0.040891461867370006 0.125 0.21875000000000003
v 0.040891461867370006 1 0.21875000000000003
v 0.1171517670895094 0.125 0.1892066003644057
v 0.1171517670895094 1 0.1892066003644057
v 0.17759007700585935 0.125 0.13410980091963273
v 0.17759007700585935 1 0.13410980091963273
v 0.2140438629619804 0.125 0.060900729732602826
v 0.2140438629619804 1 0.060900729732602826
v 0.22158983916709724 0.125 -0.020533322467408147
v 0.22158983916709724 1 -0.020533322467408147
v 0.19920887972101117 0.125 -0.09919423568912807
v 0.19920887972101117 1 -0.09919423568912807
v 0.1499236572140937 0.125 -0.1644584177267966
v 0.1499236572140937 1 -0.1644584177267966
v 0.08039041404474961 0.125 -0.2075115791549096
v 0.08039041404474961 1 -0.2075115791549096
v 2.7253186012885842e-17 0.125 -0.22253915195679744
v 2.7253186012885842e-17 1 -0.22253915195679744
v -0.08039041404474956 0.125 -0.2075115791549096
v -0.08039041404474956 1 -0.2075115791549096
v -0.14992365721409365 0.125 -0.16445841772679662
v -0.14992365721409365 1 -0.16445841772679662
v -0.19920887972101117 0.125 -0.09919423568912804
v -0.19920887972101117 1 -0.09919423568912804
v -0.22158983916709724 0.125 -0.020533322467408154
v -0.22158983916709724 1 -0.020533322467408154
v -0.2140438629619804 0.125 0.06090072973260278
v -0.2140438629619804 1 0.06090072973260278
v -0.17759007700585944 0.125 0.13410980091963268
v -0.17759007700585944 1 0.13410980091963268
v -0.1171517670895095 0.125 0.18920660036440562
v -0.1171517670895095 1 0.18920660036440562
v -0.04089146186737014 0.125 0.21875
v -0.04089146186737014 1 0.21875
vt 0.27538125 0.9857484375
vt 0.2563171875 0.993134375
vt 0.24609375 0.938446875
vt 0.0649109375 0.609375
vt 0.08535781249999999 0.609375
vt 0.08535781249999999 0.828125
vt 0.0649109375 0.828125
vt 0.3969421875 0.889678125
vt 0.41600625 0.8970640625
vt 0.38671875 0.944365625
vt 0.290490625 0.971975
vt 0.27538125 0.9857484375
vt 0.24609375 0.938446875
vt 0.08535781249999999 0.609375
vt 0.1058046875 0.609375
vt 0.1058046875 0.828125
vt 0.08535781249999999 0.828125
vt 0.41600625 0.8970640625
vt 0.431115625 0.9108375
vt 0.38671875 0.944365625
vt 0.2996046875 0.953671875
vt 0.290490625 0.971975
vt 0.24609375 0.938446875
vt 0.301025 0.484375
vt 0.321471875 0.484375
vt 0.321471875 0.703125
vt 0.301025 0.703125
vt 0.431115625 0.9108375
vt 0.4402296875 0.929140625
vt 0.38671875 0.944365625
vt 0.301490625 0.9333140625
vt 0.2996046875 0.953671875
vt 0.24609375 0.938446875
vt 0.321471875 0.484375
vt 0.34191875 0.484375
vt 0.34191875 0.703125
vt 0.321471875 0.703125
vt 0.4402296875 0.929140625
vt 0.442115625 0.9494984375
vt 0.38671875 0.944365625
vt 0.2958953125 0.9136484375
vt 0.301490625 0.9333140625
vt 0.24609375 0.938446875
vt 0.34191875 0.484375
vt 0.362365625 0.484375
vt 0.362365625 0.703125
vt 0.34191875 0.703125
vt 0.442115625 0.9494984375
vt 0.4365203125 0.9691640625
vt 0.38671875 0.944365625
vt 0.283575 0.8973328125
vt 0.2958953125 0.9136484375
vt 0.24609375 0.938446875
vt 0.362365625 0.484375
vt 0.3828125 0.484375
vt 0.3828125 0.703125
vt 0.362365625 0.703125
vt 0.4365203125 0.9691640625
vt 0.4242 0.9854796875
vt 0.38671875 0.944365625
vt 0.266190625 0.88656875
vt 0.283575 0.8973328125
vt 0.24609375 0.938446875
vt 0.234375 0.46875
vt 0.254821875 0.46875
vt 0.254821875 0.6875
vt 0.234375 0.6875
vt 0.4242 0.9854796875
vt 0.406815625 0.99624375
vt 0.38671875 0.944365625
vt 0.24609375 0.8828125
vt 0.266190625 0.88656875
vt 0.24609375 0.938446875
vt 0.254821875 0.46875
vt 0.27526875 0.46875
vt 0.27526875 0.6875
vt 0.254821875 0.6875
vt 0.406815625 0.99624375
vt 0.38671875 1
vt 0.38671875 0.944365625
vt 0.22599687499999999 0.88656875
vt 0.24609375 0.8828125
vt 0.24609375 0.938446875
vt 0.0059812500000000005 0.375
vt 0.026428125 0.375
vt 0.026428125 0.59375
vt 0.0059812500000000005 0.59375
vt 0.38671875 1
vt 0.366621875 0.99624375
vt 0.38671875 0.944365625
vt 0.2086125 0.8973328125
vt 0.22599687499999999 0.88656875
vt 0.24609375 0.938446875
vt 0.026428125 0.375
vt 0.046875 0.375
vt 0.046875 0.59375
vt 0.026428125 0.59375
vt 0.366621875 0.99624375
vt 0.3492375 0.9854796875
vt 0.38671875 0.944365625
vt 0.1962921875 0.9136484375
vt 0.2086125 0.8973328125
vt 0.24609375 0.938446875
vt 0.125 0.46875
vt 0.145446875 0.46875
vt 0.145446875 0.6875
vt 0.125 0.6875
vt 0.3492375 0.9854796875
vt 0.3369171875 0.9691640625
vt 0.38671875 0.944365625
vt 0.190696875 0.9333140625
vt 0.1962921875 0.9136484375
vt 0.24609375 0.938446875
vt 0.145446875 0.46875
vt 0.16589375 0.46875
vt 0.16589375 0.6875
vt 0.145446875 0.6875
vt 0.3369171875 0.9691640625
vt 0.331321875 0.9494984375
vt 0.38671875 0.944365625
vt 0.1925828125 0.953671875
vt 0.190696875 0.9333140625
vt 0.24609375 0.938446875
vt 0.16589375 0.46875
vt 0.186340625 0.46875
vt 0.186340625 0.6875
vt 0.16589375 0.6875
vt 0.331321875 0.9494984375
vt 0.3332078125 0.929140625
vt 0.38671875 0.944365625
vt 0.201696875 0.971975
vt 0.1925828125 0.953671875
vt 0.24609375 0.938446875
vt 0.186340625 0.46875
vt 0.2067875 0.46875
vt 0.2067875 0.6875
vt 0.186340625 0.6875
vt 0.3332078125 0.929140625
vt 0.342321875 0.9108375
vt 0.38671875 0.944365625
vt 0.21680625 0.9857484375
vt 0.201696875 0.971975
vt 0.24609375 0.938446875
vt 0.003570312499999999 0.609375
vt 0.024017187500000002 0.609375
vt 0.024017187500000002 0.828125
vt 0.003570312499999999 0.828125
vt 0.342321875 0.9108375
vt 0.35743125 0.8970640625
vt 0.38671875 0.944365625
vt 0.2358703125 0.993134375
vt 0.21680625 0.9857484375
vt 0.24609375 0.938446875
vt 0.024017187500000002 0.609375
vt 0.0444640625 0.609375
vt 0.0444640625 0.828125
vt 0.024017187500000002 0.828125
vt 0.35743125 0.8970640625
vt 0.3764953125 0.889678125
vt 0.38671875 0.944365625
vt 0.2563171875 0.993134375
vt 0.2358703125 0.993134375
vt 0.24609375 0.938446875
vt 0.0444640625 0.609375
vt 0.0649109375 0.609375
vt 0.0649109375 0.828125
vt 0.0444640625 0.828125
vt 0.3764953125 0.889678125
vt 0.3969421875 0.889678125
vt 0.38671875 0.944365625
vn 0 -1 0
vn 0.3612416661871529 0 0.9324722294043559
vn 0 1 0
vn 0 -1 0
vn 0.6736956436465573 0 0.7390089172206591
vn 0 1 0
vn 0 -1 0
vn 0.8951632913550622 0 0.4457383557765386
vn 0 1 0
vn 0 -1 0
vn 0.9957341762950346 0 0.09226835946330222
vn 0 1 0
vn 0 -1 0
vn 0.9618256431728192 0 -0.2736629900720829
vn 0 1 0
vn 0 -1 0
vn 0.7980172272802398 0 -0.6026346363792562
vn 0 1 0
vn 0 -1 0
vn 0.5264321628773558 0 -0.8502171357296143
vn 0 1 0
vn 0 -1 0
vn 0.18374951781657053 0 -0.9829730996839019
vn 0 1 0
vn 0 -1 0
vn -0.18374951781657053 0 -0.9829730996839019
vn 0 1 0
vn 0 -1 0
vn -0.5264321628773555 0 -0.8502171357296144
vn 0 1 0
vn 0 -1 0
vn -0.7980172272802398 0 -0.6026346363792562
vn 0 1 0
vn 0 -1 0
vn -0.9618256431728192 0 -0.27366299007208295
vn 0 1 0
vn 0 -1 0
vn -0.9957341762950346 0 0.09226835946330228
vn 0 1 0
vn 0 -1 0
vn -0.8951632913550627 0 0.4457383557765377
vn 0 1 0
vn 0 -1 0
vn -0.6736956436465571 0 0.7390089172206592
vn 0 1 0
vn 0 -1 0
vn -0.36124166618715364 0 0.9324722294043556
vn 0 1 0
vn 0 -1 0
vn -3.3938106328471565e-16 0 1
vn 0 1 0
usemtl m_78668499-726c-c0a8-7496-429d4e1c602a
f 5/1/1 3/2/1 1/3/1
f 3/4/2 5/5/2 6/6/2 4/7/2
f 4/8/3 6/9/3 2/10/3
f 7/11/4 5/12/4 1/13/4
f 5/14/5 7/15/5 8/16/5 6/17/5
f 6/18/6 8/19/6 2/20/6
f 9/21/7 7/22/7 1/23/7
f 7/24/8 9/25/8 10/26/8 8/27/8
f 8/28/9 10/29/9 2/30/9
f 11/31/10 9/32/10 1/33/10
f 9/34/11 11/35/11 12/36/11 10/37/11
f 10/38/12 12/39/12 2/40/12
f 13/41/13 11/42/13 1/43/13
f 11/44/14 13/45/14 14/46/14 12/47/14
f 12/48/15 14/49/15 2/50/15
f 15/51/16 13/52/16 1/53/16
f 13/54/17 15/55/17 16/56/17 14/57/17
f 14/58/18 16/59/18 2/60/18
f 17/61/19 15/62/19 1/63/19
f 15/64/20 17/65/20 18/66/20 16/67/20
f 16/68/21 18/69/21 2/70/21
f 19/71/22 17/72/22 1/73/22
f 17/74/23 19/75/23 20/76/23 18/77/23
f 18/78/24 20/79/24 2/80/24
f 21/81/25 19/82/25 1/83/25
f 19/84/26 21/85/26 22/86/26 20/87/26
f 20/88/27 22/89/27 2/90/27
f 23/91/28 21/92/28 1/93/28
f 21/94/29 23/95/29 24/96/29 22/97/29
f 22/98/30 24/99/30 2/100/30
f 25/101/31 23/102/31 1/103/31
f 23/104/32 25/105/32 26/106/32 24/107/32
f 24/108/33 26/109/33 2/110/33
f 27/111/34 25/112/34 1/113/34
f 25/114/35 27/115/35 28/116/35 26/117/35
f 26/118/36 28/119/36 2/120/36
f 29/121/37 27/122/37 1/123/37
f 27/124/38 29/125/38 30/126/38 28/127/38
f 28/128/39 30/129/39 2/130/39
f 31/131/40 29/132/40 1/133/40
f 29/134/41 31/135/41 32/136/41 30/137/41
f 30/138/42 32/139/42 2/140/42
f 33/141/43 31/142/43 1/143/43
f 31/144/44 33/145/44 34/146/44 32/147/44
f 32/148/45 34/149/45 2/150/45
f 35/151/46 33/152/46 1/153/46
f 33/154/47 35/155/47 36/156/47 34/157/47
f 34/158/48 36/159/48 2/160/48
f 3/161/49 35/162/49 1/163/49
f 35/164/50 3/165/50 4/166/50 36/167/50
f 36/168/51 4/169/51 2/170/51
o beveled_cuboid
v 0.1875 1.1875 0.1875
v 0.1875 1.1875 -0.1875
v -0.1875 1.1875 0.1875
v -0.1875 1.1875 -0.1875
v 0.1875 0.8125 0.1875
v 0.1875 0.8125 -0.1875
v -0.1875 0.8125 0.1875
v -0.1875 0.8125 -0.1875
v -0.3125 0.9375 0.1875
v -0.3125 1.0625 0.1875
v -0.3125 0.9375 -0.1875
v -0.3125 1.0625 -0.1875
v 0.3125 0.9375 0.1875
v 0.3125 1.0625 0.1875
v 0.3125 0.9375 -0.1875
v 0.3125 1.0625 -0.1875
v 0.1875 0.9375 -0.3125
v 0.1875 1.0625 -0.3125
v -0.1875 0.9375 -0.3125
v -0.1875 1.0625 -0.3125
v 0.1875 0.9375 0.3125
v 0.1875 1.0625 0.3125
v -0.1875 0.9375 0.3125
v -0.1875 1.0625 0.3125
vt 0.40625 0.453125
vt 0.3125 0.453125
vt 0.3125 0.421875
vt 0.40625 0.421875
vt 0.515625 0.421875
vt 0.515625 0.453125
vt 0.421875 0.453125
vt 0.421875 0.421875
vt 0.421875 0.765625
vt 0.421875 0.859375
vt 0.328125 0.859375
vt 0.328125 0.765625
vt 0.40625 0.65625
vt 0.5 0.65625
vt 0.5 0.75
vt 0.40625 0.75
vt 0.625 0.421875
vt 0.625 0.453125
vt 0.53125 0.453125
vt 0.53125 0.421875
vt 0.671875 0.953125
vt 0.578125 0.953125
vt 0.578125 0.921875
vt 0.671875 0.921875
vt 0.5625 0.953125
vt 0.46875 0.953125
vt 0.46875 0.90625
vt 0.5625 0.90625
vt 0.5 0.46875
vt 0.5 0.515625
vt 0.40625 0.515625
vt 0.40625 0.46875
vt 0.5703125 0.83080625
vt 0.5703125 0.875
vt 0.4765625 0.875
vt 0.4765625 0.83080625
vt 0.5703125 0.8125
vt 0.4765625 0.8125
vt 0.4765625 0.76830625
vt 0.5703125 0.76830625
vt 0.515625 0.75
vt 0.515625 0.703125
vt 0.609375 0.703125
vt 0.609375 0.75
vt 0.515625 0.46875
vt 0.609375 0.46875
vt 0.609375 0.515625
vt 0.515625 0.515625
vt 0.4453125 0.59375
vt 0.5390625 0.59375
vt 0.5390625 0.63794375
vt 0.4453125 0.63794375
vt 0.4453125 0.57544375
vt 0.4453125 0.53125
vt 0.5390625 0.53125
vt 0.5390625 0.57544375
vt 0.328125 0.71875
vt 0.375 0.71875
vt 0.375 0.75
vt 0.328125 0.75
vt 0.0625 0.59375
vt 0.0625 0.5625
vt 0.109375 0.5625
vt 0.109375 0.59375
vt 0.0625 0.546875
vt 0.0625 0.515625
vt 0.109375 0.515625
vt 0.109375 0.546875
vt 0.0625 0.46875
vt 0.109375 0.46875
vt 0.109375 0.5
vt 0.0625 0.5
vt 0.5390625 0.59375
vt 0.5773355420143307 0.6158475599965543
vt 0.5390625 0.6379442066659424
vt 0.4453125 0.59375
vt 0.4453125 0.6379442066659424
vt 0.4070394579856694 0.6158475599965543
vt 0.4453125 0.53125
vt 0.4453125 0.5754442066659424
vt 0.4070394579856694 0.5533475599965543
vt 0.5390625 0.53125
vt 0.5773355420143307 0.5533475599965543
vt 0.5390625 0.5754442066659424
vt 0.5703125 0.875
vt 0.5703125 0.8308057933340576
vt 0.6085855420143306 0.8529024400034457
vt 0.4765625 0.875
vt 0.43828945798566943 0.8529024400034457
vt 0.4765625 0.8308057933340576
vt 0.4765625 0.8125
vt 0.43828945798566943 0.7904024400034457
vt 0.4765625 0.7683057933340576
vt 0.5703125 0.8125
vt 0.5703125 0.7683057933340576
vt 0.6085855420143306 0.7904024400034457
vn 1 0 0
vn -1 0 0
vn 0 1 0
vn 0 -1 0
vn 0 0 1
vn 0 0 -1
vn 0.7071067811865476 0.7071067811865476 0
vn -0.7071067811865476 0.7071067811865476 0
vn 0 0.7071067811865476 0.7071067811865476
vn 0 0.7071067811865476 -0.7071067811865476
vn 0.7071067811865476 -0.7071067811865476 0
vn -0.7071067811865476 -0.7071067811865476 0
vn 0 -0.7071067811865476 0.7071067811865476
vn 0 -0.7071067811865476 -0.7071067811865476
vn 0.7071067811865476 0 -0.7071067811865476
vn 0.7071067811865476 0 0.7071067811865476
vn -0.7071067811865476 0 -0.7071067811865476
vn -0.7071067811865476 0 0.7071067811865476
vn 0.5773502691896258 -0.5773502691896258 0.5773502691896258
vn -0.5773502691896258 -0.5773502691896258 0.5773502691896258
vn 0.5773502691896258 -0.5773502691896258 -0.5773502691896258
vn -0.5773502691896258 -0.5773502691896258 -0.5773502691896258
vn 0.5773502691896258 0.5773502691896258 0.5773502691896258
vn -0.5773502691896258 0.5773502691896258 0.5773502691896258
vn 0.5773502691896258 0.5773502691896258 -0.5773502691896258
vn -0.5773502691896258 0.5773502691896258 -0.5773502691896258
usemtl m_78668499-726c-c0a8-7496-429d4e1c602a
f 52/171/52 50/172/52 49/173/52 51/174/52
f 45/175/53 46/176/53 48/177/53 47/178/53
f 37/179/54 38/180/54 40/181/54 39/182/54
f 44/183/55 42/184/55 41/185/55 43/186/55
f 57/187/56 58/188/56 60/189/56 59/190/56
f 56/191/57 54/192/57 53/193/57 55/194/57
f 38/195/58 37/196/58 50/197/58 52/198/58
f 46/199/59 39/200/59 40/201/59 48/202/59
f 58/203/60 37/204/60 39/205/60 60/206/60
f 40/207/61 38/208/61 54/209/61 56/210/61
f 49/211/62 41/212/62 42/213/62 51/214/62
f 44/215/63 43/216/63 45/217/63 47/218/63
f 43/219/64 41/220/64 57/221/64 59/222/64
f 53/223/65 42/224/65 44/225/65 55/226/65
f 51/227/66 53/228/66 54/229/66 52/230/66
f 58/231/67 57/232/67 49/233/67 50/234/67
f 56/235/68 55/236/68 47/237/68 48/238/68
f 45/239/69 59/240/69 60/241/69 46/242/69
f 41/243/70 49/244/70 57/245/70
f 43/246/71 59/247/71 45/248/71
f 42/249/72 53/250/72 51/251/72
f 44/252/73 47/253/73 55/254/73
f 37/255/74 58/256/74 50/257/74
f 39/258/75 46/259/75 60/260/75
f 38/261/76 52/262/76 54/263/76
f 40/264/77 56/265/77 48/266/77
o cylinder
v 0 0 0
v 0 0.125 0
v 0.10153740507278322 0 0.31249999999999994
v 0.10153740507278322 0.125 0.31249999999999994
v 0.2658283776100125 0 0.19313562148434216
v 0.2658283776100125 0.125 0.19313562148434216
v 0.3285819450744585 0 2.0119841364652352e-17
v 0.3285819450744585 0.125 2.0119841364652352e-17
v 0.2658283776100125 0 -0.1931356214843421
v 0.2658283776100125 0.125 -0.1931356214843421
v 0.10153740507278325 0 -0.31249999999999994
v 0.10153740507278325 0.125 -0.31249999999999994
v -0.10153740507278332 0 -0.31249999999999994
v -0.10153740507278332 0.125 -0.31249999999999994
v -0.26582837761001243 0 -0.19313562148434218
v -0.26582837761001243 0.125 -0.19313562148434218
v -0.3285819450744585 0 -6.035952409395704e-17
v -0.3285819450744585 0.125 -6.035952409395704e-17
v -0.26582837761001255 0 0.19313562148434207
v -0.26582837761001255 0.125 0.19313562148434207
v -0.1015374050727833 0 0.31249999999999994
v -0.1015374050727833 0.125 0.31249999999999994
vt 0.1523953125 0.970159375
vt 0.111321875 1
vt 0.0859375 0.921875
vt 0.56640625 0.65625
vt 0.617175 0.65625
vt 0.617175 0.6875
vt 0.56640625 0.6875
vt 0.251946875 0.703125
vt 0.2930203125 0.7329656250000001
vt 0.2265625 0.78125
vt 0.1680828125 0.921875
vt 0.1523953125 0.970159375
vt 0.0859375 0.921875
vt 0.187525 0.421875
vt 0.23829375 0.421875
vt 0.23829375 0.453125
vt 0.187525 0.453125
vt 0.2930203125 0.7329656250000001
vt 0.3087078125 0.78125
vt 0.2265625 0.78125
vt 0.1523953125 0.8735906250000001
vt 0.1680828125 0.921875
vt 0.0859375 0.921875
vt 0.23829375 0.421875
vt 0.2890625 0.421875
vt 0.2890625 0.453125
vt 0.23829375 0.453125
vt 0.3087078125 0.78125
vt 0.2930203125 0.8295343749999999
vt 0.2265625 0.78125
vt 0.111321875 0.84375
vt 0.1523953125 0.8735906250000001
vt 0.0859375 0.921875
vt 0.470721875 0.96875
vt 0.521490625 0.96875
vt 0.521490625 1
vt 0.470721875 1
vt 0.2930203125 0.8295343749999999
vt 0.251946875 0.859375
vt 0.2265625 0.78125
vt 0.060553125 0.84375
vt 0.111321875 0.84375
vt 0.0859375 0.921875
vt 0.521490625 0.96875
vt 0.572259375 0.96875
vt 0.572259375 1
vt 0.521490625 1
vt 0.251946875 0.859375
vt 0.20117812499999999 0.859375
vt 0.2265625 0.78125
vt 0.019479687499999995 0.8735906250000001
vt 0.060553125 0.84375
vt 0.0859375 0.921875
vt 0.572259375 0.96875
vt 0.623028125 0.96875
vt 0.623028125 1
vt 0.572259375 1
vt 0.20117812499999999 0.859375
vt 0.1601046875 0.8295343749999999
vt 0.2265625 0.78125
vt 0.003792187500000002 0.921875
vt 0.019479687499999995 0.8735906250000001
vt 0.0859375 0.921875
vt 0.0625 0.421875
vt 0.11326875 0.421875
vt 0.11326875 0.453125
vt 0.0625 0.453125
vt 0.1601046875 0.8295343749999999
vt 0.1444171875 0.78125
vt 0.2265625 0.78125
vt 0.019479687499999995 0.970159375
vt 0.003792187500000002 0.921875
vt 0.0859375 0.921875
vt 0.11326875 0.421875
vt 0.1640375 0.421875
vt 0.1640375 0.453125
vt 0.11326875 0.453125
vt 0.1444171875 0.78125
vt 0.1601046875 0.7329656250000001
vt 0.2265625 0.78125
vt 0.060553125 1
vt 0.019479687499999995 0.970159375
vt 0.0859375 0.921875
vt 0.0625 0.375
vt 0.109375 0.375
vt 0.109375 0.40625
vt 0.0625 0.40625
vt 0.1601046875 0.7329656250000001
vt 0.20117812499999999 0.703125
vt 0.2265625 0.78125
vt 0.111321875 1
vt 0.060553125 1
vt 0.0859375 0.921875
vt 0.5156375 0.65625
vt 0.56640625 0.65625
vt 0.56640625 0.6875
vt 0.5156375 0.6875
vt 0.20117812499999999 0.703125
vt 0.251946875 0.703125
vt 0.2265625 0.78125
vn 0 -1 0
vn 0.5877852522924729 0 0.8090169943749478
vn 0 1 0
vn 0 -1 0
vn 0.9510565162951538 0 0.30901699437494734
vn 0 1 0
vn 0 -1 0
vn 0.9510565162951538 0 -0.30901699437494734
vn 0 1 0
vn 0 -1 0
vn 0.5877852522924731 0 -0.8090169943749477
vn 0 1 0
vn 0 -1 0
vn 0 0 -1
vn 0 1 0
vn 0 -1 0
vn -0.5877852522924731 0 -0.8090169943749477
vn 0 1 0
vn 0 -1 0
vn -0.9510565162951535 0 -0.30901699437494756
vn 0 1 0
vn 0 -1 0
vn -0.9510565162951538 0 0.30901699437494706
vn 0 1 0
vn 0 -1 0
vn -0.5877852522924732 0 0.8090169943749475
vn 0 1 0
vn 0 -1 0
vn 0 0 1
vn 0 1 0
usemtl m_78668499-726c-c0a8-7496-429d4e1c602a
f 65/267/78 63/268/78 61/269/78
f 63/270/79 65/271/79 66/272/79 64/273/79
f 64/274/80 66/275/80 62/276/80
f 67/277/81 65/278/81 61/279/81
f 65/280/82 67/281/82 68/282/82 66/283/82
f 66/284/83 68/285/83 62/286/83
f 69/287/84 67/288/84 61/289/84
f 67/290/85 69/291/85 70/292/85 68/293/85
f 68/294/86 70/295/86 62/296/86
f 71/297/87 69/298/87 61/299/87
f 69/300/88 71/301/88 72/302/88 70/303/88
f 70/304/89 72/305/89 62/306/89
f 73/307/90 71/308/90 61/309/90
f 71/310/91 73/311/91 74/312/91 72/313/91
f 72/314/92 74/315/92 62/316/92
f 75/317/93 73/318/93 61/319/93
f 73/320/94 75/321/94 76/322/94 74/323/94
f 74/324/95 76/325/95 62/326/95
f 77/327/96 75/328/96 61/329/96
f 75/330/97 77/331/97 78/332/97 76/333/97
f 76/334/98 78/335/98 62/336/98
f 79/337/99 77/338/99 61/339/99
f 77/340/100 79/341/100 80/342/100 78/343/100
f 78/344/101 80/345/101 62/346/101
f 81/347/102 79/348/102 61/349/102
f 79/350/103 81/351/103 82/352/103 80/353/103
f 80/354/104 82/355/104 62/356/104
f 63/357/105 81/358/105 61/359/105
f 81/360/106 63/361/106 64/362/106 82/363/106
f 82/364/107 64/365/107 62/366/107